<svg width="256" height="256" viewBox="0 0 256 256" fill="none" xmlns="http://www.w3.org/2000/svg">
<rect width="256" height="256" rx="48" fill="#FAFAFA"/>
<path d="M94.25 220.375L30.75 48.125L56.125 36.75L103.25 172.25L121.125 123.625L97.625 59.875L123 48.875L167 178.625C171.667 168.292 176.25 158.042 180.75 147.875C185.333 137.625 189.875 127.292 194.375 116.875C196.542 111.792 198.458 106.667 200.125 101.5C201.792 96.25 202.625 90.7083 202.625 84.875C202.625 80.375 202.042 76.125 200.875 72.125C199.792 68.125 198.25 64.3333 196.25 60.75C194.25 57.0833 191.833 53.6667 189 50.5C186.25 47.25 183.25 44.2083 180 41.375L199 17.875C202.083 20.125 204.875 22.9167 207.375 26.25C209.958 29.5833 212.167 33.1667 214 37C215.833 40.8333 217.25 44.7917 218.25 48.875C219.25 52.9583 219.75 56.875 219.75 60.625C219.75 67.9583 218.667 75.0833 216.5 82C214.333 88.8333 211.833 95.625 209 102.375C200.417 122.208 191.792 141.875 183.125 161.375C174.458 180.875 165.75 200.542 157 220.375L125 133.875L94.25 220.375Z" fill="#555555"/>
</svg>
